<svg xmlns="http://www.w3.org/2000/svg" width="1000" height="219.478" viewBox="0 0 264.58333 58.070222"><path d="M26.011 43.095c6.951 4.692 17.852 6.32 28.018.726-6.263 10.593-18.87 16.41-31.498 13.504C6.903 53.732-2.85 38.15.746 22.528 4.22 7.425 18.892-2.192 33.979.43c0 0 5.919 1.03 8.962 6.263 1.145 1.89 2.056 4.082 2.654 6.556l.013.058c.715 3.31.727 6.824-.085 10.34-1.247 5.433-4.312 10.51-8.298 13.237l-.022.022a11.304 11.304 0 0 0 2.884-5.326c1.406-6.107-2.404-12.194-8.51-13.593-6.1-1.406-12.186 2.405-13.595 8.507-.406 1.77-.459 3.522-.123 5.168 0 0 1.07 6.886 8.152 11.433" style="fill:#1476c6;fill-opacity:1;fill-rule:nonzero;stroke:none;stroke-width:.104735"/><path d="M23.53 38.995c2.61 1.463 5.745 2.12 5.745 2.12 7.115 1.636 14.258-.145 19.678-4.213l.035-.033a24.116 24.116 0 0 0 6.276-6.527 24.165 24.165 0 0 0 2.59-5.27c.8 7.242-.727 11.336-.727 11.336-2.004 2.386-4.097 3.844-4.097 3.844-5.402 3.988-12.375 5.557-19.432 3.933 0 0-6.099-1.28-10.068-5.19" style="fill:#21b5b0;fill-opacity:1;fill-rule:nonzero;stroke:none;stroke-width:.104735"/><path d="M30.655 40.264c11.125.895 21.571-7.176 24.153-17.338 0 0 .78-3.205.804-5.576 0 0-2.316-6.069-8.617-11.146a23.71 23.71 0 0 1 1.977 16.12c-1.977 8.585-8.36 15.007-16.212 17.43-.657.2-1.4.384-2.117.498l.012.012" style="fill:#21b5b0;fill-opacity:1;fill-rule:nonzero;stroke:none;stroke-width:.104735"/><path d="M106.028 11.92v20.932h-4.794V11.919h4.794M264.583 11.913v35.113h-4.793V11.913h4.793M139.843 11.905v6.705h-6.998v4.093h6.998v10.149h4.793V11.905h-4.793M132.603 30.912l-7.866-13.36h6.644v-4.09h-7.245V10.7h-4.796v2.763h-7.216v4.09h6.593l-7.867 13.36h5.181l5.692-9.668 5.696 9.668h5.184M257.797 36.815 245.576 13.07h-5.368l-12.224 23.745h5.316l9.593-18.628 9.59 18.628h5.314M193.13 33.918v4.09h27.028v8.928h4.79l-.011-13.015-31.807-.003M80.302 34.634h-4.794v11.518l30.743.003v-4.09H80.3v-7.43M144.44 42.065h-26.42v-7.43h-4.8v11.52h31.22v-4.09M212.645 12.138v4.103h7.513v6.676h-7.513v4.09h7.513v4.968h4.79V12.138h-12.303M178.856 12.148l.015 19.63h4.79V16.245h3.377v-4.107l-8.182.01M150.458 16.606h18.461v9.103h-7.696v-5.932h-4.797v5.932h-6.813v4.09l24.097-.009V12.51l-23.252.007v4.09M82.63 27.565a5.585 5.585 0 1 1 0-11.168 5.586 5.586 0 0 1 5.589 5.584 5.586 5.586 0 0 1-5.588 5.584zm0-15.584c-5.52 0-9.994 4.478-9.994 10 0 5.518 4.473 9.997 9.995 9.997 5.52 0 9.999-4.48 9.999-9.998 0-5.521-4.478-9.999-10-9.999M200.567 27.06a5.586 5.586 0 0 1 0-11.17 5.586 5.586 0 0 1 0 11.17zm0-15.583c-5.52 0-9.997 4.479-9.997 9.998 0 5.522 4.476 9.998 9.997 9.998 5.522 0 9.997-4.476 9.997-9.998 0-5.52-4.475-9.998-9.997-9.998" style="fill:#565353;fill-opacity:1;fill-rule:nonzero;stroke:none;stroke-width:.104735"/><path d="M175.421 42.855a5.586 5.586 0 0 1 0-11.171 5.586 5.586 0 1 1 0 11.171zm0-15.583c-5.524 0-9.994 4.477-9.994 9.998 0 5.521 4.47 9.995 9.994 9.995 5.522 0 9.997-4.474 9.997-9.995 0-5.521-4.475-9.998-9.997-9.998" style="fill:#565353;fill-opacity:1;fill-rule:nonzero;stroke:none;stroke-width:.104735"/></svg>